<?xml version="1.0" standalone="no"?>
<!DOCTYPE svg PUBLIC "-//W3C//DTD SVG 20010904//EN"
 "http://www.w3.org/TR/2001/REC-SVG-20010904/DTD/svg10.dtd">
<svg version="1.0" xmlns="http://www.w3.org/2000/svg"
 width="48.000000pt" height="48.000000pt" viewBox="0 0 48.000000 48.000000"
 preserveAspectRatio="xMidYMid meet">

<g transform="translate(0.000000,48.000000) scale(0.100000,-0.100000)"
fill="#000000" stroke="none">
<path d="M203 410 c-18 -11 -35 -31 -39 -45 -3 -14 -15 -30 -25 -36 -22 -11
-25 -29 -5 -29 11 0 9 -20 -12 -102 -26 -97 -29 -103 -54 -106 -28 -3 -38 -25
-18 -37 6 -4 26 -1 44 5 41 13 57 44 82 158 17 72 22 82 40 82 12 0 24 7 28
15 4 11 -1 15 -19 15 -22 0 -23 2 -14 29 12 35 33 45 53 26 21 -22 33 -18 38
9 8 41 -45 49 -99 16z"/>
<path d="M297 294 c-12 -13 -8 -34 6 -28 8 3 19 -6 25 -21 10 -23 9 -31 -7
-54 -11 -15 -27 -34 -36 -41 -19 -16 -19 -30 -1 -30 8 0 26 14 40 31 l26 30 9
-24 c6 -14 15 -28 20 -32 16 -9 51 4 51 20 0 8 -6 12 -14 9 -8 -3 -18 6 -25
25 -14 32 -7 53 28 85 12 11 21 23 21 28 0 16 -27 7 -50 -17 l-23 -25 -11 23
c-11 22 -45 34 -59 21z"/>
</g>
</svg>
